<svg width="809" height="682" viewBox="0 0 809 682" fill="none" xmlns="http://www.w3.org/2000/svg">
<g opacity="0.2">
<path opacity="0.2" d="M255.55 643.42C256.093 645.648 256.816 647.828 257.71 649.94C271.61 644.48 285.663 639.247 299.87 634.24C299.75 633.65 299.63 633.03 299.48 632.42C298.049 626.129 294.994 620.323 290.62 615.58C284.94 609.58 277.62 606.68 270.5 608.45C263.38 610.22 258.21 616.28 255.85 624.25C254.086 630.505 253.982 637.113 255.55 643.42V643.42Z" fill="#3F3D56"/>
<path opacity="0.2" d="M275.522 631.491C287.725 628.765 294.661 613.321 291.015 596.994C287.369 580.668 274.52 569.642 262.317 572.367C250.114 575.093 243.177 590.538 246.824 606.864C250.47 623.19 263.319 634.216 275.522 631.491Z" fill="#3F3D56"/>
<path opacity="0.2" d="M266.959 595.475C279.162 592.749 286.098 577.305 282.452 560.978C278.805 544.652 265.957 533.626 253.754 536.351C241.551 539.077 234.614 554.522 238.261 570.848C241.907 587.174 254.756 598.2 266.959 595.475Z" fill="#3F3D56"/>
<path opacity="0.2" d="M258.378 559.481C270.581 556.755 277.517 541.31 273.871 524.984C270.225 508.658 257.376 497.632 245.173 500.357C232.97 503.083 226.033 518.527 229.68 534.854C233.326 551.18 246.175 562.206 258.378 559.481Z" fill="#3F3D56"/>
<path opacity="0.2" d="M249.797 523.476C262 520.751 268.937 505.306 265.29 488.98C261.644 472.653 248.795 461.628 236.592 464.353C224.389 467.079 217.453 482.523 221.099 498.85C224.746 515.176 237.594 526.202 249.797 523.476Z" fill="#3F3D56"/>
<path opacity="0.2" d="M266.74 226.94C268.821 222.273 270.578 217.468 272 212.56L212 217.28L274.54 202.15C277.528 186.423 277.15 170.241 273.43 154.67C270.168 140.886 264.322 127.845 256.2 116.24L183 181.69L246.37 104.22C220.5 76.6 181.37 63.46 142.48 73.22C84.37 87.75 48.76 147.79 62.94 207.32C68.5766 231.365 82.0893 252.836 101.33 268.32C98.0975 275.588 95.6406 283.177 94 290.96L178.42 312.1L92 304.61C90.9664 316.676 91.8711 328.83 94.68 340.61C100.326 364.654 113.841 386.123 133.08 401.61C122.97 424.312 120.635 449.716 126.44 473.88C140.62 533.41 199.22 569.88 257.33 555.36C315.44 540.84 351.05 480.8 336.87 421.27C331.224 397.226 317.709 375.757 298.47 360.27C308.58 337.568 310.915 312.164 305.11 288C299.489 263.937 285.983 242.444 266.74 226.94Z" fill="#6064EC"/>
<path opacity="0.1" d="M94.7 340.57C100.346 364.614 113.861 386.083 133.1 401.57C122.99 424.272 120.655 449.676 126.46 473.84C140.64 533.37 199.24 569.84 257.35 555.32C315.46 540.8 351.07 480.76 336.89 421.23C331.244 397.186 317.729 375.717 298.49 360.23C308.23 338.37 91.82 328.5 94.7 340.57Z" fill="black"/>
</g>
<g opacity="0.2">
<path opacity="0.2" d="M525.24 632.43C524.876 635.033 524.732 637.663 524.81 640.29C542.243 640.57 559.743 641.157 577.31 642.05C577.43 641.36 577.55 640.66 577.65 639.95C578.782 632.618 577.937 625.116 575.2 618.22C571.58 609.4 564.83 603.09 556.38 601.87C547.93 600.65 539.69 604.81 533.74 612.23C529.158 618.086 526.224 625.06 525.24 632.43Z" fill="#3F3D56"/>
<path opacity="0.2" d="M583.717 598.055C586.441 579.107 576.914 562.06 562.438 559.98C547.962 557.899 534.019 571.572 531.296 590.519C528.572 609.467 538.099 626.513 552.575 628.594C567.051 630.675 580.993 617.002 583.717 598.055Z" fill="#3F3D56"/>
<path opacity="0.2" d="M589.742 556.12C592.465 537.173 582.938 520.126 568.463 518.045C553.987 515.964 540.044 529.637 537.32 548.585C534.597 567.532 544.124 584.579 558.599 586.66C573.075 588.741 587.018 575.068 589.742 556.12Z" fill="#3F3D56"/>
<path opacity="0.2" d="M595.765 514.195C598.488 495.248 588.961 478.201 574.486 476.12C560.01 474.04 546.067 487.713 543.344 506.66C540.62 525.608 550.147 542.654 564.623 544.735C579.098 546.816 593.041 533.143 595.765 514.195Z" fill="#3F3D56"/>
<path opacity="0.2" d="M601.799 472.262C604.523 453.315 594.996 436.268 580.52 434.187C566.044 432.106 552.102 445.779 549.378 464.727C546.654 483.674 556.181 500.721 570.657 502.802C585.133 504.883 599.076 491.21 601.799 472.262Z" fill="#3F3D56"/>
<path opacity="0.2" d="M708.65 228.036C712.787 224.366 716.64 220.431 720.183 216.26L654.588 197.128L727.169 207.319C736.317 194.168 742.479 179.422 745.279 163.983C748.079 148.545 747.457 132.739 743.453 117.531L638.704 151.446L738.106 102.077C731.775 87.4389 722.265 74.1683 710.169 63.0917C698.073 52.0151 683.649 43.3697 667.797 37.6943C651.946 32.0188 635.005 29.4348 618.03 30.1032C601.056 30.7716 584.411 34.6782 569.134 41.5795C553.856 48.4808 540.273 58.229 529.231 70.2168C518.188 82.2046 509.923 96.1752 504.949 111.258C499.976 126.341 498.401 142.213 500.323 157.886C502.245 173.559 507.622 188.696 516.12 202.355C509.694 208.056 503.947 214.382 498.977 221.224L579.676 274.924L491.172 233.544C481.862 250.591 477.277 269.525 477.832 288.632C478.388 307.739 484.066 326.415 494.353 342.972C477.546 357.849 465.587 376.816 459.844 397.706C454.101 418.595 454.805 440.564 461.876 461.099C468.946 481.635 482.098 499.909 499.827 513.832C517.557 527.755 539.148 536.765 562.133 539.832C585.118 542.899 608.569 539.899 629.804 531.175C651.039 522.451 669.201 508.356 682.215 490.5C695.228 472.644 702.567 451.749 703.393 430.203C704.218 408.658 698.497 387.331 686.883 368.662C706.969 350.882 720.035 327.351 723.982 301.847C727.93 276.343 722.53 250.348 708.65 228.036V228.036Z" fill="#6064EC"/>
<path opacity="0.1" d="M479.55 241.02C475.461 269.174 480.997 297.884 495.26 322.5C478.034 338.923 465.778 359.862 459.891 382.922C454.005 405.983 454.726 430.234 461.973 452.904C469.22 475.574 482.7 495.747 500.871 511.117C519.043 526.486 541.172 536.433 564.73 539.819C588.288 543.204 612.323 539.893 634.088 530.262C655.852 520.632 674.467 505.071 687.805 485.36C701.143 465.649 708.665 442.582 709.511 418.797C710.357 395.012 704.493 371.469 692.59 350.86C712.49 331.91 481.58 226.93 479.55 241.02Z" fill="black"/>
</g>
<path d="M372.66 404.93C370.11 391.59 367.26 378.22 366.79 364.65C366.51 356.65 367.07 348.51 366.04 340.53C365.53 336.61 364.64 332.76 363.76 328.91L360.22 313.5C360.621 310.546 360.506 307.545 359.88 304.63C359.525 303.093 359.054 301.585 358.47 300.12C361.774 295.469 364.498 290.432 366.58 285.12C367.52 282.72 368.33 280.17 367.96 277.63C367.24 272.76 362.52 269.55 358.13 267.15C355.47 265.7 352.67 264.3 349.63 264.07C347.504 263.984 345.387 264.391 343.444 265.258C341.502 266.126 339.786 267.43 338.43 269.07C337.691 265.128 337.939 261.064 339.15 257.24C336.54 256.07 333.91 254.97 331.26 253.9C330.877 250.444 330.743 246.965 330.86 243.49C330.92 239.32 330.99 235.11 331.23 230.93C338.342 228.335 344.489 223.626 348.847 217.436C353.205 211.245 355.565 203.87 355.61 196.3C355.61 195.87 355.61 195.45 355.61 195.03C357.548 191.546 358.774 187.711 359.217 183.749C359.66 179.787 359.311 175.776 358.19 171.95C355.26 161.95 347.6 153.71 338.37 148.62C329.14 143.53 318.44 141.38 307.85 141C304.296 140.792 300.73 141.017 297.23 141.67C293.484 142.592 289.855 143.934 286.41 145.67C281.12 148.11 275.79 150.78 271.83 154.99C264.96 162.32 263.42 173.09 264.17 182.99C265.17 195.99 269.51 208.57 274.53 220.67C276.2 224.67 277.98 228.73 280.73 232.14C282.86 234.77 286.56 234.93 289.5 233.09C289.267 236.284 289.193 239.488 289.28 242.69C283.85 242.5 278.56 243.39 274.2 246.45C272.2 247.88 270.3 250.13 270.74 252.55C272.076 252.586 273.356 253.092 274.355 253.979C275.354 254.866 276.007 256.078 276.2 257.4C276.42 259.53 275.35 261.56 274.31 263.4C273.86 264.22 273.41 265.05 272.95 265.87C268.65 270.47 264.24 276.23 263.85 281.94C263.148 282.007 262.451 282.11 261.76 282.25C257.86 282.97 253.98 284.3 250.15 285.3L222.43 292.6L215.58 294.5L204.58 297.4C197.58 299.24 190.45 301.13 184.24 304.83C178.03 308.53 172.76 314.34 171.51 321.34C170.89 324.82 171.27 328.44 170.51 331.89C170.51 332.05 170.45 332.2 170.41 332.35C169.775 334.534 168.92 336.648 167.86 338.66C161.65 351.75 157.23 366.02 158.06 380.43C158.57 389.28 161.06 397.91 163.48 406.43C166.02 415.143 168.527 423.857 171 432.57C172.631 438.808 174.699 444.923 177.19 450.87C181.457 460.397 187.786 468.857 195.72 475.64C197.947 477.637 200.436 479.319 203.12 480.64C207.212 482.409 211.679 483.134 216.12 482.75C217.32 482.67 218.5 482.54 219.67 482.35C228.26 480.99 236.27 476.85 243.62 472.19C246.693 470.243 249.693 468.193 252.62 466.04C252.992 469.399 253.661 472.719 254.62 475.96C255.27 478.19 256.07 480.48 255.81 482.79C255.45 486.01 253.11 488.65 251.9 491.67C249.33 498.05 251.97 505.16 252.4 512C252.81 518.41 251.25 524.77 250 531.08C247.912 541.603 246.678 552.278 246.31 563C246.299 567.06 246.032 571.114 245.51 575.14C244.58 580.82 242.4 586.3 242.02 592.04C241.44 600.98 245.3 609.73 244.95 618.68C244.54 629.19 238.37 639.4 240.52 649.68C240.79 650.97 241.52 652.46 242.7 652.79L242.12 653.32C240.35 654.96 238.63 657.99 240.64 659.32C241.102 659.595 241.616 659.772 242.15 659.84C245.26 660.49 248.39 661.08 251.52 661.63C251.451 664.521 251.815 667.407 252.6 670.19C253.17 670.6 253.75 670.97 254.33 671.32C253.89 672.5 253.92 673.64 254.96 674.32C255.422 674.595 255.936 674.772 256.47 674.84C282.229 680.155 308.537 682.337 334.82 681.34C339.52 681.16 344.43 680.82 348.44 678.42C352.45 676.02 355.16 670.91 353.25 666.7C351.56 662.98 347.14 661.37 343.17 660.13L338.51 658.69C339.107 657.632 339.455 656.451 339.528 655.239C339.601 654.026 339.396 652.812 338.93 651.69C337.24 647.97 332.82 646.36 328.85 645.12L318.12 641.79C316.708 641.455 315.38 640.832 314.22 639.96C313.451 639.196 312.743 638.373 312.1 637.5C310.552 635.73 308.517 634.454 306.25 633.83C306.129 631.556 306.179 629.276 306.4 627.01L309.4 590.8C310.07 582.6 310.73 574.24 308.82 566.23C308.05 562.98 306.82 559.65 307.57 556.39C308.74 551.07 314.34 548.11 318.16 544.16C323.92 538.16 325.71 529.63 327.03 521.51C332.496 488.002 334.213 453.989 332.15 420.1C344.155 416.716 356.51 414.729 368.97 414.18C371.09 414.09 372.13 413.09 372.79 411.11C373.45 409.13 373.05 406.98 372.66 404.93ZM312.81 406.7C312.88 406.35 312.96 406 313.02 405.65L313.85 406.71L312.81 406.7Z" fill="url(#paint0_linear)"/>
<path d="M293.31 223.15C293.05 226.63 291.82 229.97 291.37 233.44C290.86 237.26 291.31 241.15 291.06 245C290.81 248.85 289.7 252.9 286.77 255.41C303.8 256.885 320.574 260.514 336.69 266.21C331.82 260.21 331.69 251.83 331.81 244.13C331.97 232.74 332.17 221.13 335.89 210.38C324.795 207.9 313.306 207.75 302.15 209.94C299.73 210.42 292.4 210.12 291.31 212.38C290.52 214.04 293.49 220.63 293.31 223.15Z" fill="#A1616A"/>
<path opacity="0.1" d="M293.31 223.15C293.05 226.63 291.82 229.97 291.37 233.44C290.86 237.26 291.31 241.15 291.06 245C290.81 248.85 289.7 252.9 286.77 255.41C303.8 256.885 320.574 260.514 336.69 266.21C331.82 260.21 331.69 251.83 331.81 244.13C331.97 232.74 332.17 221.13 335.89 210.38C324.795 207.9 313.306 207.75 302.15 209.94C299.73 210.42 292.4 210.12 291.31 212.38C290.52 214.04 293.49 220.63 293.31 223.15Z" fill="black"/>
<path d="M313.47 637.55C314.071 638.437 314.74 639.276 315.47 640.06C316.596 640.933 317.895 641.557 319.28 641.89L329.76 645.22C333.65 646.46 337.97 648.06 339.62 651.78C341.48 655.98 338.83 661.09 334.91 663.48C330.99 665.87 326.19 666.22 321.6 666.4C295.9 667.39 270.177 665.21 245.01 659.91C244.491 659.835 243.991 659.658 243.54 659.39C241.54 658.04 243.25 655.02 244.98 653.39C251.73 646.99 259.07 640.28 268.26 638.8C273.09 638.01 277.94 638.33 282.74 637.18C286.19 636.35 289.45 634.92 292.89 634.07C299.3 632.5 308.89 631.94 313.47 637.55Z" fill="#46455B"/>
<path opacity="0.1" d="M313.47 637.55C314.071 638.437 314.74 639.276 315.47 640.06C316.596 640.933 317.895 641.557 319.28 641.89L329.76 645.22C333.65 646.46 337.97 648.06 339.62 651.78C341.48 655.98 338.83 661.09 334.91 663.48C330.99 665.87 326.19 666.22 321.6 666.4C295.9 667.39 270.177 665.21 245.01 659.91C244.491 659.835 243.991 659.658 243.54 659.39C241.54 658.04 243.25 655.02 244.98 653.39C251.73 646.99 259.07 640.28 268.26 638.8C273.09 638.01 277.94 638.33 282.74 637.18C286.19 636.35 289.45 634.92 292.89 634.07C299.3 632.5 308.89 631.94 313.47 637.55Z" fill="black"/>
<path d="M260.85 411.37C255.679 425.016 255.361 440.027 259.95 453.88C256.46 453.5 254.95 458.22 255.04 461.74C255.164 466.64 255.907 471.506 257.25 476.22C257.89 478.46 258.67 480.74 258.42 483.04C258.06 486.26 255.78 488.9 254.59 491.91C252.09 498.28 254.66 505.38 255.09 512.21C255.49 518.62 253.96 524.97 252.73 531.27C250.692 541.782 249.489 552.438 249.13 563.14C249.123 567.196 248.859 571.247 248.34 575.27C247.44 580.95 245.34 586.42 244.94 592.15C244.37 601.07 248.14 609.82 247.8 618.76C247.4 629.25 241.36 639.45 243.47 649.76C243.77 651.21 244.58 652.92 246.07 652.94C261.15 653.13 275.24 648.94 290.16 651.13C291.68 616.61 293.16 581.93 299.96 548.04C305.96 517.87 316.13 488.04 315.18 457.28C314.63 439.69 310.45 422.44 307.91 405.02C291.967 401.48 275.285 403.731 260.85 411.37V411.37Z" fill="#BBBDC8"/>
<path opacity="0.1" d="M260.85 411.37C255.679 425.016 255.361 440.027 259.95 453.88C256.46 453.5 254.95 458.22 255.04 461.74C255.164 466.64 255.907 471.506 257.25 476.22C257.89 478.46 258.67 480.74 258.42 483.04C258.06 486.26 255.78 488.9 254.59 491.91C252.09 498.28 254.66 505.38 255.09 512.21C255.49 518.62 253.96 524.97 252.73 531.27C250.692 541.782 249.489 552.438 249.13 563.14C249.123 567.196 248.859 571.247 248.34 575.27C247.44 580.95 245.34 586.42 244.94 592.15C244.37 601.07 248.14 609.82 247.8 618.76C247.4 629.25 241.36 639.45 243.47 649.76C243.77 651.21 244.58 652.92 246.07 652.94C261.15 653.13 275.24 648.94 290.16 651.13C291.68 616.61 293.16 581.93 299.96 548.04C305.96 517.87 316.13 488.04 315.18 457.28C314.63 439.69 310.45 422.44 307.91 405.02C291.967 401.48 275.285 403.731 260.85 411.37V411.37Z" fill="black"/>
<path d="M327.47 652.55C328.071 653.437 328.74 654.276 329.47 655.06C330.596 655.933 331.895 656.557 333.28 656.89L343.76 660.22C347.65 661.46 351.97 663.06 353.62 666.78C355.48 670.98 352.83 676.09 348.91 678.48C344.99 680.87 340.19 681.22 335.6 681.4C309.9 682.39 284.177 680.21 259.01 674.91C258.491 674.835 257.991 674.658 257.54 674.39C255.54 673.04 257.25 670.02 258.98 668.39C265.73 661.99 273.07 655.28 282.26 653.8C287.09 653.01 291.94 653.33 296.74 652.18C300.19 651.35 303.45 649.92 306.89 649.07C313.3 647.5 322.89 646.94 327.47 652.55Z" fill="#46455B"/>
<path d="M266.05 412.36C262.19 417.36 261.05 423.96 261.57 430.22C262.09 436.48 264.2 442.49 266.27 448.42C263.52 450.95 264.09 455.31 264.45 459.03C265.76 472.85 260.96 486.64 261.66 500.5C261.95 506.33 263.22 512.08 263.52 517.91C263.85 524.28 263.04 530.65 262.28 536.98C257.425 577.504 254.755 618.259 254.28 659.07C254.28 662.83 254.22 666.65 255.28 670.25C262.55 675.6 271.68 676.32 280.48 674.32C289.28 672.32 297.31 667.86 305.2 663.46C309.523 661.223 313.621 658.578 317.44 655.56C318.608 654.733 319.473 653.546 319.9 652.18C320.74 648.18 315.18 646.37 311.99 643.78C307.35 640.01 307.42 633.03 307.9 627.07L310.8 590.91C311.46 582.72 312.1 574.37 310.24 566.37C309.48 563.13 308.31 559.8 309.01 556.54C310.15 551.24 315.63 548.28 319.36 544.33C325 538.33 326.74 529.82 328.04 521.72C334.167 483.293 335.47 444.25 331.92 405.5C324.57 408.05 315.86 406.66 308.11 407.26C300.36 407.86 292.66 410.45 284.81 410.66C278.27 410.81 270.07 407.2 266.05 412.36Z" fill="#BBBDC8"/>
<path d="M319 234C339.435 234 356 217.435 356 197C356 176.565 339.435 160 319 160C298.565 160 282 176.565 282 197C282 217.435 298.565 234 319 234Z" fill="#A1616A"/>
<path d="M339.91 257.86C328.054 252.414 315.691 248.147 303 245.12C294.06 242.99 283.85 241.71 276.38 247.06C274.38 248.49 272.57 250.74 273 253.16C274.318 253.204 275.578 253.714 276.554 254.601C277.531 255.487 278.16 256.692 278.33 258C278.55 260.12 277.51 262.15 276.49 264L267.86 280C266.206 282.882 264.785 285.892 263.61 289C261.87 294.08 261.49 299.52 261.12 304.88L260.12 319.4C259.5 328.55 258.87 337.74 259.7 346.87C260.32 353.76 261.76 360.68 260.78 367.53C259.99 373.04 257.66 378.21 256.35 383.63C253.89 393.83 255.01 405.01 250.24 414.37C252.177 413.476 254.364 413.278 256.43 413.81C270.91 416.48 282.3 427.91 296.36 432.28C299.91 427.1 304.72 423.28 308.69 418.46C311.643 414.847 313.597 410.523 314.36 405.92C317.36 409.92 319.91 413.04 321.7 417.68C322.019 418.76 322.564 419.759 323.3 420.61C325.19 422.45 328.3 421.74 330.83 420.97C343.233 417.229 356.056 415.055 369 414.5C371.08 414.41 372.09 413.41 372.74 411.43C373.39 409.45 373.03 407.31 372.64 405.27C370.15 391.94 367.37 378.59 366.91 365.04C366.63 357.04 367.18 348.93 366.17 340.95C365.67 337.04 364.8 333.19 363.94 329.35L356.8 297.62C356.4 295.85 354.5 294.69 353.69 293.06C350.41 286.42 344.14 281.62 340.9 274.96C338.453 269.582 338.1 263.485 339.91 257.86V257.86Z" fill="#46455B"/>
<path d="M288 211.81C287.957 211.292 288.079 210.774 288.35 210.33C288.746 209.915 289.242 209.608 289.79 209.44C291.281 208.732 292.501 207.557 293.264 206.094C294.027 204.63 294.293 202.958 294.02 201.33L297.52 200.6L297.63 188.41C302.83 185.53 309.92 187.71 314.81 184.32C317.56 182.4 318.97 179.14 320.65 176.24C322.33 173.34 324.83 170.42 328.17 170.18C327.021 173.102 326.529 176.24 326.728 179.373C326.927 182.506 327.811 185.557 329.32 188.31C332.822 186.538 335.746 183.804 337.75 180.43L339.49 190.43C339.525 191.047 339.789 191.628 340.23 192.06C341.14 192.73 342.37 191.89 343.17 191.06L347.7 186.61C349.606 191.394 350.913 196.395 351.59 201.5C359.03 194.28 361.34 182.68 358.48 172.72C355.62 162.76 348.13 154.51 339.11 149.42C330.09 144.33 319.63 142.19 309.28 141.81C305.806 141.607 302.319 141.832 298.9 142.48C295.231 143.403 291.681 144.745 288.32 146.48C283.15 148.91 277.93 151.58 274.07 155.78C267.35 163.1 265.84 173.86 266.58 183.78C267.58 196.78 271.8 209.33 276.71 221.41C278.34 225.41 280.08 229.46 282.77 232.87C286.82 238 296.77 233.74 295.5 223.6C294.62 216.36 288 219.15 288 211.81Z" fill="#3F3D56"/>
<path d="M302 409.9C289.52 435.399 270.356 457.034 246.55 472.5C239.36 477.15 231.55 481.29 223.14 482.65C221.99 482.84 220.84 482.97 219.67 483.05C215.333 483.409 210.976 482.67 207 480.9C204.368 479.575 201.932 477.892 199.76 475.9C191.978 469.089 185.794 460.645 181.65 451.17C179.214 445.224 177.192 439.116 175.6 432.89C173.147 424.183 170.7 415.473 168.26 406.76C165.87 398.24 163.46 389.62 162.96 380.76C162.15 366.37 166.47 352.12 172.54 339.05C173.575 337.037 174.409 334.927 175.03 332.75C175.03 332.6 175.1 332.45 175.13 332.29C175.85 328.84 175.48 325.23 176.13 321.75C177.35 314.75 182.51 308.95 188.57 305.26C194.63 301.57 201.57 299.68 208.46 297.84L219.19 294.95L225.85 293.16L252.94 285.87C256.69 284.87 260.48 283.54 264.29 282.87C268.54 282.07 268.51 282.49 268.84 286.65C269.45 294.19 269.25 301.6 270.84 309.07C272.35 316.2 275.01 323.07 277.01 330.07C282.06 347.74 282.9 366.34 286.88 384.29C287.79 388.38 289.05 392.74 292.34 395.29C296.11 398.29 302.46 399.03 303.46 403.73C303.83 405.82 302.9 407.96 302 409.9Z" fill="#6064EC"/>
<path opacity="0.1" d="M223.14 482.61C221.99 482.8 220.84 482.93 219.67 483.01C215.337 483.382 210.979 482.656 207 480.9C204.368 479.575 201.932 477.892 199.76 475.9C191.978 469.089 185.794 460.645 181.65 451.17C179.214 445.224 177.192 439.116 175.6 432.89C173.147 424.183 170.7 415.473 168.26 406.76C165.87 398.24 163.46 389.62 162.96 380.76C162.15 366.37 166.47 352.12 172.54 339.05C173.575 337.037 174.409 334.927 175.03 332.75C175.03 332.6 175.1 332.45 175.13 332.29C191.45 335.16 211.03 366.38 221.13 407.29C228.57 437.88 228.89 466.05 223.14 482.61Z" fill="black"/>
<path opacity="0.1" d="M252.64 374.97L249.91 375.44C247.1 368.06 244.3 360.67 241.01 353.49C239.3 349.74 237.45 346.04 236.01 342.17C230.61 327.31 231.53 309.68 221.52 297.44C220.805 296.531 219.99 295.706 219.09 294.98L225.75 293.19C231.582 302.411 235.695 312.612 237.89 323.3C238.97 328.52 239.58 333.86 241.34 338.88C242.837 342.688 244.55 346.407 246.47 350.02C250.27 357.81 253.13 366.32 252.64 374.97Z" fill="black"/>
<path d="M279.22 262.3C286.41 256.14 296.22 252.76 305.53 254.3C311.01 255.19 316.1 257.66 321.01 260.3C330.58 265.38 340.01 271.23 346.91 279.58C351.047 284.846 354.483 290.628 357.13 296.78C358.428 299.468 359.434 302.287 360.13 305.19C362.57 316.49 356.58 327.72 350.81 337.74L339.71 357C334.61 365.85 329.47 374.76 322.83 382.53C319.77 386.11 316.41 389.42 313.06 392.73L298.35 407.25C298.085 407.562 297.739 407.794 297.35 407.92C297.029 407.937 296.708 407.884 296.409 407.765C296.11 407.646 295.841 407.463 295.62 407.23L290.76 403.36C295.236 400.267 299.397 396.74 303.18 392.83C309.54 386.25 314.77 378.68 319.97 371.14L336.15 347.68C340.88 340.81 345.82 333.25 345.29 324.93C345.04 320.93 343.54 317.17 341.97 313.5C339.19 306.973 336.17 300.55 332.91 294.23C329.25 287.14 325.25 280.14 319.98 274.15C314.71 268.16 308.05 263.15 300.38 260.98C298.092 260.233 295.668 260 293.28 260.3C288.02 261.17 284.28 265.69 280.95 269.89L270.81 282.89C268.5 285.84 266.38 289.26 266.24 283.66C266 275.67 274.08 267.44 279.22 262.3Z" fill="#6064EC"/>
<path d="M282.36 350C284.36 357.7 287.31 366.44 294.72 369.36C299.97 371.43 306.12 369.75 310.66 366.36C315.2 362.97 318.42 358.19 321.38 353.36C323.885 349.02 326.647 344.832 329.65 340.82C335.58 333.38 343.65 327.48 347.65 318.82C348.83 316.24 349.65 313.48 350.99 311C352.422 308.713 354.041 306.549 355.83 304.53C360.434 298.826 364.116 292.435 366.74 285.59C367.66 283.2 368.45 280.64 368.09 278.11C367.38 273.24 362.77 270.04 358.48 267.65C355.87 266.2 353.14 264.79 350.17 264.57C345.83 264.23 341.56 266.57 338.89 270C336.32 273.548 334.883 277.79 334.77 282.17C334.47 287.5 335.51 293.04 333.77 298.08C332.85 300.431 331.579 302.63 330 304.6C324.383 312.115 317.43 318.532 309.49 323.53C309.272 319.747 308.452 316.024 307.06 312.5C306.3 310.56 291.4 312.5 289.46 312.82C285.62 313.38 278.18 313.82 275.76 317.48C273.34 321.14 276.34 327.29 277.32 330.98L282.36 350Z" fill="#A1616A"/>
<path d="M282 265.97C279.787 267.799 277.726 269.805 275.84 271.97C271.4 277.32 269.23 284.28 268.67 291.21C268.11 298.14 269.06 305.1 270.25 311.95C271.33 318.097 272.607 324.2 274.08 330.26C274.49 325.69 278.19 321.91 282.48 320.26C286.77 318.61 291.48 318.79 296.05 319.46C301.932 320.331 307.67 321.99 313.11 324.39L315.22 294.82C315.664 290.831 315.641 286.804 315.15 282.82C314.485 279.124 313.041 275.611 310.914 272.516C308.786 269.421 306.023 266.814 302.81 264.87C294.79 259.99 289.2 259.68 282 265.97Z" fill="#46455B"/>
<path d="M497.2 655.35C499.41 657.35 502.79 657.3 505.79 657.08L519.46 656.08C530.32 655.28 541.55 654.38 551.13 649.21C552.144 648.746 553.042 648.063 553.76 647.21C554.522 645.902 554.919 644.414 554.91 642.9C556.204 628.088 559.149 613.468 563.69 599.31C569.69 580.46 578.69 561.88 578.57 542.15C578.57 541.67 578.57 541.15 578.57 540.72C578.4 534.54 577.31 528.43 576.64 522.28C575.53 511.99 575.64 501.62 575.72 491.28C575.634 487.226 575.916 483.173 576.56 479.17C577.19 475.92 579.56 472.66 578.11 469.8C575.3 464.25 565.11 462.21 559.63 462.01C552.25 461.75 544.99 463.68 537.86 465.6C535.69 466.19 533.42 466.82 531.78 468.35C529.58 470.41 528.95 473.64 528.87 476.65C528.49 490 536.18 502.42 536.79 515.75C536.9 518.15 536.79 520.75 538.19 522.75C539.114 523.839 540.116 524.859 541.19 525.8C544.19 529.09 544.28 534.05 544.07 538.51C543.98 540.31 543.88 542.11 543.76 543.91C542.126 567.933 537.273 591.629 529.33 614.36C528.564 616.787 527.559 619.132 526.33 621.36C524.324 624.488 521.817 627.265 518.91 629.58C514.791 633.098 510.378 636.256 505.72 639.02C502.61 640.86 499.29 642.62 497.16 645.54C495.03 648.46 494.56 652.89 497.2 655.35Z" fill="#FDA8A8"/>
<path opacity="0.1" d="M497.2 655.35C499.41 657.35 502.79 657.3 505.79 657.08L519.46 656.08C530.32 655.28 541.55 654.38 551.13 649.21C552.144 648.746 553.042 648.063 553.76 647.21C554.522 645.902 554.919 644.414 554.91 642.9C556.204 628.088 559.149 613.468 563.69 599.31C569.69 580.46 578.69 561.88 578.57 542.15C578.57 541.67 578.57 541.15 578.57 540.72C578.4 534.54 577.31 528.43 576.64 522.28C575.53 511.99 575.64 501.62 575.72 491.28C575.634 487.226 575.916 483.173 576.56 479.17C577.19 475.92 579.56 472.66 578.11 469.8C575.3 464.25 565.11 462.21 559.63 462.01C552.25 461.75 544.99 463.68 537.86 465.6C535.69 466.19 533.42 466.82 531.78 468.35C529.58 470.41 528.95 473.64 528.87 476.65C528.49 490 536.18 502.42 536.79 515.75C536.9 518.15 536.79 520.75 538.19 522.75C539.114 523.839 540.116 524.859 541.19 525.8C544.19 529.09 544.28 534.05 544.07 538.51C543.98 540.31 543.88 542.11 543.76 543.91C542.126 567.933 537.273 591.629 529.33 614.36C528.564 616.787 527.559 619.132 526.33 621.36C524.324 624.488 521.817 627.265 518.91 629.58C514.791 633.098 510.378 636.256 505.72 639.02C502.61 640.86 499.29 642.62 497.16 645.54C495.03 648.46 494.56 652.89 497.2 655.35Z" fill="black"/>
<path d="M497.2 655.35C499.41 657.35 502.79 657.3 505.79 657.08L519.46 656.08C530.32 655.28 541.55 654.38 551.13 649.21C552.144 648.746 553.042 648.063 553.76 647.21C554.522 645.902 554.919 644.414 554.91 642.9C556.204 628.088 559.149 613.468 563.69 599.31C569.69 580.46 578.69 561.88 578.57 542.15C567.012 543.428 555.387 544.002 543.76 543.87C542.126 567.894 537.273 591.589 529.33 614.32C528.564 616.747 527.559 619.092 526.33 621.32C524.324 624.448 521.817 627.225 518.91 629.54C514.791 633.058 510.378 636.216 505.72 638.98C502.61 640.82 499.29 642.58 497.16 645.5C495.03 648.42 494.56 652.89 497.2 655.35Z" fill="#EEEFF3"/>
<path opacity="0.1" d="M497.2 655.35C499.41 657.35 502.79 657.3 505.79 657.08L519.46 656.08C530.32 655.28 541.55 654.38 551.13 649.21C552.144 648.746 553.042 648.063 553.76 647.21C554.522 645.902 554.919 644.414 554.91 642.9C556.204 628.088 559.149 613.468 563.69 599.31C569.69 580.46 578.69 561.88 578.57 542.15C567.012 543.428 555.387 544.002 543.76 543.87C542.126 567.894 537.273 591.589 529.33 614.32C528.564 616.747 527.559 619.092 526.33 621.32C524.324 624.448 521.817 627.225 518.91 629.54C514.791 633.058 510.378 636.216 505.72 638.98C502.61 640.82 499.29 642.58 497.16 645.5C495.03 648.42 494.56 652.89 497.2 655.35Z" fill="black"/>
<path d="M527.4 651.13C530.684 649.953 533.841 648.445 536.82 646.63L551.89 638.13C553.252 637.248 554.769 636.634 556.36 636.32L558.16 649.77C558.61 653.07 558.85 656.95 556.36 659.16C555.471 659.87 554.452 660.4 553.36 660.72C547.89 662.61 541.99 662.65 536.2 662.83C518.42 663.4 500.46 665.48 482.94 662.36C480.8 661.98 478.48 661.36 477.19 659.66C475.72 657.66 476.14 654.76 477.56 652.73C479.117 650.8 481.098 649.257 483.35 648.22C487.81 645.82 492.44 643.78 497.07 641.73C497.356 641.561 497.694 641.504 498.02 641.57C498.47 641.72 498.61 642.27 498.73 642.73C499.54 646.01 502.18 648.6 505.19 650.15C505.23 650.15 520.74 653.25 527.4 651.13Z" fill="#BBBDC8"/>
<path opacity="0.1" d="M527.4 651.13C530.684 649.953 533.841 648.445 536.82 646.63L551.89 638.13C553.252 637.248 554.769 636.634 556.36 636.32L558.16 649.77C558.61 653.07 558.85 656.95 556.36 659.16C555.471 659.87 554.452 660.4 553.36 660.72C547.89 662.61 541.99 662.65 536.2 662.83C518.42 663.4 500.46 665.48 482.94 662.36C480.8 661.98 478.48 661.36 477.19 659.66C475.72 657.66 476.14 654.76 477.56 652.73C479.117 650.8 481.098 649.257 483.35 648.22C487.81 645.82 492.44 643.78 497.07 641.73C497.356 641.561 497.694 641.504 498.02 641.57C498.47 641.72 498.61 642.27 498.73 642.73C499.54 646.01 502.18 648.6 505.19 650.15C505.23 650.15 520.74 653.25 527.4 651.13Z" fill="black"/>
<path d="M507.2 669.35C509.41 671.35 512.79 671.3 515.79 671.08L529.46 670.08C540.32 669.28 551.55 668.38 561.13 663.21C562.144 662.746 563.042 662.063 563.76 661.21C564.522 659.902 564.919 658.414 564.91 656.9C566.204 642.088 569.149 627.468 573.69 613.31C579.69 594.46 588.69 575.88 588.57 556.15C588.57 555.67 588.57 555.15 588.57 554.72C588.4 548.54 587.31 542.43 586.64 536.28C585.53 525.99 585.64 515.62 585.72 505.28C585.634 501.226 585.916 497.173 586.56 493.17C587.19 489.92 589.56 486.66 588.11 483.8C585.3 478.25 575.11 476.21 569.63 476.01C562.25 475.75 554.99 477.68 547.86 479.6C545.69 480.19 543.42 480.82 541.78 482.35C539.58 484.41 538.95 487.64 538.87 490.65C538.49 504 546.18 516.42 546.79 529.75C546.9 532.15 546.79 534.75 548.19 536.75C549.114 537.839 550.116 538.859 551.19 539.8C554.19 543.09 554.28 548.05 554.07 552.51C553.98 554.31 553.88 556.11 553.76 557.91C552.126 581.933 547.273 605.629 539.33 628.36C538.564 630.787 537.559 633.132 536.33 635.36C534.324 638.488 531.817 641.265 528.91 643.58C524.791 647.098 520.378 650.256 515.72 653.02C512.61 654.86 509.29 656.62 507.16 659.54C505.03 662.46 504.56 666.89 507.2 669.35Z" fill="#FDA8A8"/>
<path d="M507.2 669.35C509.41 671.35 512.79 671.3 515.79 671.08L529.46 670.08C540.32 669.28 551.55 668.38 561.13 663.21C562.144 662.746 563.042 662.063 563.76 661.21C564.522 659.902 564.919 658.414 564.91 656.9C566.204 642.088 569.149 627.468 573.69 613.31C579.69 594.46 588.69 575.88 588.57 556.15C577.012 557.428 565.387 558.002 553.76 557.87C552.126 581.894 547.273 605.589 539.33 628.32C538.564 630.747 537.559 633.092 536.33 635.32C534.324 638.448 531.817 641.225 528.91 643.54C524.791 647.058 520.378 650.216 515.72 652.98C512.61 654.82 509.29 656.58 507.16 659.5C505.03 662.42 504.56 666.89 507.2 669.35Z" fill="#EEEFF3"/>
<path d="M537.4 665.13C540.684 663.953 543.841 662.445 546.82 660.63L561.89 652.13C563.252 651.248 564.769 650.634 566.36 650.32L568.16 663.77C568.61 667.07 568.85 670.95 566.36 673.16C565.471 673.87 564.452 674.4 563.36 674.72C557.89 676.61 551.99 676.65 546.2 676.83C528.42 677.4 510.46 679.48 492.94 676.36C490.8 675.98 488.48 675.36 487.19 673.66C485.72 671.66 486.14 668.76 487.56 666.73C489.117 664.8 491.098 663.257 493.35 662.22C497.81 659.82 502.44 657.78 507.07 655.73C507.356 655.561 507.694 655.504 508.02 655.57C508.47 655.72 508.61 656.27 508.73 656.73C509.54 660.01 512.18 662.6 515.19 664.15C515.23 664.15 530.74 667.25 537.4 665.13Z" fill="#BBBDC8"/>
<path d="M487.81 263.71C492.68 257.71 492.81 249.33 492.69 241.63C492.69 238.63 492.6 235.53 492.49 232.48V232.41C492.355 226.805 491.763 221.219 490.72 215.71V215.71C490.194 213.066 489.492 210.461 488.62 207.91C489.28 207.76 489.94 207.62 490.62 207.5C501.102 205.43 511.888 205.43 522.37 207.5C524.18 207.86 528.76 207.78 531.37 208.67C532.113 208.847 532.76 209.302 533.18 209.94C533.69 211.01 532.64 214.11 531.88 216.86C531.462 218.099 531.226 219.393 531.18 220.7C531.281 221.928 531.468 223.148 531.74 224.35C532.21 226.56 532.83 228.75 533.12 230.99C533.63 234.81 533.18 238.7 533.43 242.55C533.68 246.4 534.79 250.45 537.72 252.96C520.696 254.42 503.925 258.032 487.81 263.71V263.71Z" fill="#FDA8A8"/>
<path opacity="0.1" d="M535.73 223.91C534.4 224.02 533.08 224.15 531.73 224.3C518.41 225.722 505.265 228.469 492.49 232.5V232.43L490.72 215.73C490.72 214.73 490.72 213.73 490.72 212.68C490.72 210.97 490.67 209.24 490.63 207.52C501.112 205.45 511.898 205.45 522.38 207.52C524.19 207.88 528.77 207.8 531.38 208.69C531.38 210.32 531.38 211.95 531.44 213.58C531.506 214.69 531.656 215.793 531.89 216.88V216.88C532.368 219.58 533.717 222.049 535.73 223.91V223.91Z" fill="black"/>
<path d="M510.5 228.5C530.935 228.5 547.5 211.935 547.5 191.5C547.5 171.065 530.935 154.5 510.5 154.5C490.065 154.5 473.5 171.065 473.5 191.5C473.5 211.935 490.065 228.5 510.5 228.5Z" fill="#FDA8A8"/>
<path d="M478 331.01C471.43 307.76 477.43 282.79 493.12 264.43C496.61 260.34 500.12 256.14 504.7 253.69C510.15 250.79 516.6 250.69 522.77 250.63C528.22 250.63 533.84 250.63 538.85 252.8C545.62 255.69 550.29 261.97 554.23 268.2C558.43 274.84 562.23 282.03 562.87 289.87C563.21 294.52 562.39 299.24 563.08 303.87C563.96 309.74 567.23 315 568.57 320.78C569.3 323.9 569.45 327.13 569.92 330.31C570.628 334.66 571.658 338.952 573 343.15C582.936 376.141 596.541 407.912 613.56 437.87C618.56 446.7 623.91 455.43 627.27 465C628.79 469.33 629.89 474 628.65 478.46C626.58 485.86 617.23 490.21 610.24 487.02C610.499 487.842 610.446 488.73 610.092 489.516C609.738 490.302 609.107 490.929 608.32 491.28C606.658 492.03 604.841 492.373 603.02 492.28L541.26 493.92C539.638 493.961 538.025 494.179 536.45 494.57C529.19 496.43 531.92 499.57 531.14 502.19C530.19 505.39 525.6 505.13 522.4 504.19C522.89 508.86 523 514.57 516.97 515.93C515.406 516.247 513.789 516.192 512.25 515.77C501.308 512.951 489.962 512.038 478.71 513.07C474.59 513.45 469.88 513.91 466.83 511.07C464.53 508.96 463.93 505.6 463.54 502.5C457.39 453.5 470.04 404.43 479.54 356.02C480.82 349.49 480.36 338.91 478.44 332.53L478 331.01Z" fill="#46455B"/>
<path d="M560 297.24C561.45 301.42 563.26 305.53 563.75 309.93C564.14 313.45 563.67 317.01 563.88 320.54C564.263 324.459 565.072 328.325 566.29 332.07C568.215 339.353 570.59 346.51 573.4 353.5C574.74 356.65 576.29 360.12 575.21 363.37C574.13 366.62 570.78 368.63 569.82 371.86C568.82 375.27 570.82 378.86 573.37 381.35C575.92 383.84 579.11 385.61 581.47 388.26C584.04 391.15 585.47 394.84 587.28 398.26C589.85 402.783 592.797 407.082 596.09 411.11L608.18 426.8C608.934 427.931 609.923 428.886 611.08 429.6C615.08 431.68 619.27 427.49 623.34 425.6C628.74 423.03 635.06 424.54 641.03 424.97C647 425.4 654.19 423.85 656.32 418.27C657.025 416.005 657.173 413.604 656.75 411.27C655.814 403.291 653.507 395.533 649.93 388.34C647.75 383.96 645.09 379.77 643.72 375.08C642.6 371.27 642.38 367.26 641.49 363.39C640.6 359.52 639.03 355.82 637.77 352.04C628.83 325.18 635.55 295.79 632.66 267.63C631.59 257.24 628.42 245.85 619.48 240.44C614.17 237.23 607.79 236.73 601.48 236.44L598.63 236.31L594.04 236.08C587.4 235.75 580.74 235.5 574.27 236.91C565.17 238.91 554.22 245.98 553.86 256.14C553.469 270.095 555.547 284.009 560 297.24Z" fill="#6064EC"/>
<path opacity="0.1" d="M594.09 236.04C595.317 242.845 595.93 249.746 595.92 256.66C596.1 276.4 598.23 296.06 600.37 315.66L601.78 328.66C602.04 331.06 602.35 333.58 603.78 335.51C605.21 337.44 608.21 338.45 610.1 336.96C611.26 332.37 611.03 327.55 610.8 322.82C610.3 312.76 609.803 302.697 609.31 292.63C608.83 282.83 608.31 273.02 607.12 263.28C606.187 255.736 604.811 248.253 603 240.87C602.657 239.341 602.178 237.845 601.57 236.4L598.72 236.27L594.09 236.04Z" fill="black"/>
<path d="M528.75 244.5C522.62 243.62 516.2 243.17 510.38 245.3C504.82 247.35 500.38 251.56 496.38 255.99C493.653 258.845 491.398 262.116 489.7 265.68C486.29 273.52 487.62 282.56 489.7 290.86C495.37 313.72 506.63 335.77 524.7 350.86C530.201 355.329 536.057 359.343 542.21 362.86C550.21 367.55 558.47 371.86 567.32 374.57C569.79 375.33 572.42 375.97 574.95 375.43C577.48 374.89 579.87 372.84 579.95 370.25C565.45 362.1 552.45 351.57 539.54 341.09C536.001 338.36 532.687 335.35 529.63 332.09C525.05 326.94 521.82 320.72 517.38 315.45C513.38 310.72 508.38 306.73 505.38 301.32C503.497 297.625 502.237 293.645 501.65 289.54C500.17 281.17 499.89 272.28 503.21 264.45C506.53 256.62 514.14 250.19 522.64 250.33C527 250.4 531.15 252.13 535.17 253.82L560.47 264.5C560.16 264.36 561.92 259.97 561.84 259.36C561.6 257.45 561.26 257.42 559.84 255.97C557.42 253.55 553.66 251.85 550.59 250.44C543.632 247.424 536.277 245.423 528.75 244.5V244.5Z" fill="#6064EC"/>
<path d="M478.39 184.5C485.608 182.896 492.288 179.451 497.78 174.5L492.49 202.26C497.76 199.841 502.87 197.089 507.79 194.02C508.5 206.72 507.47 219.71 502.79 231.53C498.11 243.35 489.48 253.93 477.9 259.18C488.18 260.9 497.41 253.52 506.56 248.53C512.94 245.06 523.84 248.63 530.82 246.53C536.74 244.79 542.82 243.27 548.16 240.16C558.08 234.37 560.33 217.46 562.34 206.16C564.35 194.86 562.52 183.16 559.18 172.16C558.068 168.264 556.564 164.492 554.69 160.9C552.114 156.183 548.588 152.052 544.334 148.768C540.08 145.484 535.191 143.117 529.976 141.819C524.761 140.52 519.334 140.317 514.036 141.222C508.739 142.128 503.687 144.123 499.2 147.08C489.98 153.15 481.43 162.08 474.39 170.55C473.39 171.72 469.26 175.88 470.63 177.63C472.3 179.75 482.1 173.71 483.76 172.89C483.28 174.7 480.3 184.03 478.39 184.5Z" fill="#3F3D56"/>
<g opacity="0.1">
<path opacity="0.1" d="M520 507.93C518.436 508.247 516.819 508.192 515.28 507.77C504.338 504.951 492.992 504.038 481.74 505.07C477.62 505.45 472.91 505.91 469.86 503.07C467.56 500.96 466.96 497.6 466.57 494.5C460.42 445.5 473.07 396.43 482.57 348.02C483.85 341.49 483.39 330.91 481.47 324.53L481.02 322.98C477.318 309.76 477.537 295.748 481.65 282.65C474.827 297.85 473.536 314.958 478 331.01L478.45 332.56C480.37 338.94 480.83 349.56 479.55 356.05C470.08 404.46 457.43 453.56 463.55 502.53C463.94 505.63 464.55 508.99 466.84 511.1C469.84 513.91 474.6 513.45 478.72 513.1C489.972 512.068 501.318 512.981 512.26 515.8C513.799 516.222 515.416 516.277 516.98 515.96C521.9 514.85 522.73 510.84 522.61 506.87C521.811 507.378 520.927 507.737 520 507.93Z" fill="black"/>
<path opacity="0.1" d="M613.26 479.02C613.519 479.842 613.466 480.73 613.112 481.516C612.758 482.302 612.127 482.929 611.34 483.28C609.678 484.03 607.861 484.373 606.04 484.28L544.28 485.92C542.658 485.961 541.045 486.179 539.47 486.57C532.21 488.43 534.94 491.57 534.16 494.19C533.21 497.39 528.62 497.13 525.42 496.19C525.72 499.04 525.87 502.27 524.58 504.67C527.39 505.09 530.41 504.72 531.16 502.19C531.91 499.66 529.21 496.43 536.47 494.57C538.045 494.179 539.658 493.961 541.28 493.92L603 492.28C604.821 492.373 606.638 492.03 608.3 491.28C609.087 490.929 609.718 490.302 610.072 489.516C610.426 488.73 610.479 487.842 610.22 487.02C617.22 490.21 626.56 485.86 628.63 478.46C628.942 477.339 629.116 476.183 629.15 475.02C625.41 479.5 618.64 481.5 613.26 479.02Z" fill="black"/>
</g>
<path d="M530.41 270.06C535.722 281.354 540.419 292.928 544.48 304.73C547.76 314.24 550.65 324.23 549.56 334.23C548.47 344.23 542.56 354.33 532.96 357.48C528.88 358.82 524.51 358.83 520.22 358.93C509.944 359.171 499.691 359.999 489.51 361.41C484.772 362.194 479.995 362.725 475.2 363C468.42 363.22 461.64 362.16 454.88 362.71C443.94 363.6 433.55 368.71 422.57 368.71C421.231 368.793 419.892 368.546 418.67 367.99C416.67 366.91 415.78 364.57 415.1 362.41C413.57 357.53 412.37 351.93 414.96 347.52C418.15 342.09 425.4 341 431.69 340.52C445.85 339.52 460.027 338.82 474.22 338.42C486.33 338.08 499.45 337.62 508.84 329.96C509.473 329.507 509.991 328.911 510.35 328.22C510.705 327.049 510.662 325.794 510.23 324.65C506.508 310.107 504.912 295.101 505.49 280.1C505.426 278.755 505.775 277.422 506.49 276.28C507.34 275.365 508.444 274.724 509.66 274.44C518.044 271.75 527.02 271.5 535.54 273.72" fill="#FDA8A8"/>
<path d="M505.24 280.09C503.789 280.589 502.526 281.521 501.62 282.76C502.02 278.59 501.48 274.38 501.56 270.18C501.64 265.98 502.42 261.6 505.07 258.34C508.44 254.18 514.17 252.69 519.53 252.55C527.31 252.34 535.36 254.6 541.06 259.9C544.729 263.335 547.111 267.923 547.81 272.9C547.99 274.27 548.59 279.41 547.16 280.29C545.91 281.07 541.16 278.38 539.63 277.95C528.27 274.611 516.098 275.369 505.24 280.09Z" fill="#424158"/>
<path opacity="0.1" d="M436.261 188.063C436.261 188.063 453.383 177.225 447.696 173.667C441.524 169.807 439.17 177.974 439.862 175.572C439.308 177.494 442.193 169.656 435.205 170.067C426.206 170.595 436.261 188.063 436.261 188.063Z" fill="#6064EC"/>
<path opacity="0.1" d="M421.672 47.415C421.672 47.415 435.122 32.2579 428.672 30.415C421.672 28.415 421.672 36.915 421.672 34.415C421.672 36.415 422.273 28.0852 415.672 30.415C407.172 33.415 421.672 47.415 421.672 47.415Z" fill="#6064EC"/>
<path opacity="0.1" d="M379.2 24.0519C379.2 24.0519 387.673 5.64428 380.966 5.75215C373.687 5.86921 376.153 14.0036 375.428 11.6111C376.008 13.5251 374.166 5.37928 368.525 9.52406C361.262 14.8613 379.2 24.0519 379.2 24.0519Z" fill="#6064EC"/>
<path opacity="0.1" d="M500.811 84.918C500.811 84.918 518.497 75.0255 513.011 71.1644C507.058 66.9742 504.263 75.0017 505.085 72.6406C504.427 74.5295 507.734 66.8603 500.734 66.8904C491.72 66.9291 500.811 84.918 500.811 84.918Z" fill="#6064EC"/>
<path opacity="0.1" d="M494.533 19.1383C494.533 19.1383 511.295 7.75115 505.496 4.3797C499.202 0.720849 497.113 8.96023 497.728 6.53689C497.236 8.47556 499.866 0.548915 492.895 1.18513C483.918 2.00438 494.533 19.1383 494.533 19.1383Z" fill="#6064EC"/>
<path opacity="0.1" d="M405.672 155.415C405.672 155.415 419.122 140.258 412.672 138.415C405.672 136.415 405.672 144.915 405.672 142.415C405.672 144.415 406.273 136.085 399.672 138.415C391.172 141.415 405.672 155.415 405.672 155.415Z" fill="#6064EC"/>
<path opacity="0.1" d="M394.461 200.237C394.461 200.237 404.511 182.641 397.82 182.162C390.558 181.643 392.304 189.961 391.791 187.515C392.201 189.472 391.078 181.197 385.097 184.833C377.395 189.515 394.461 200.237 394.461 200.237Z" fill="#6064EC"/>
<path opacity="0.1" d="M337.76 54.3517C337.76 54.3517 349.211 37.633 342.581 36.6104C335.386 35.5006 336.448 43.934 336.136 41.4536C336.385 43.4379 335.941 35.0983 329.683 38.2345C321.624 42.2729 337.76 54.3517 337.76 54.3517Z" fill="#6064EC"/>
<path opacity="0.1" d="M313.542 91.12C313.542 91.12 320.529 71.548 313.815 72.0242C306.527 72.5411 309.666 80.8527 308.743 78.4081C309.481 80.3638 306.968 72.0063 301.653 76.616C294.808 82.5519 313.542 91.12 313.542 91.12Z" fill="#6064EC"/>
<path opacity="0.1" d="M395.672 87.415C395.672 87.415 409.122 72.2579 402.672 70.415C395.672 68.415 395.672 76.915 395.672 74.415C395.672 76.415 396.273 68.0852 389.672 70.415C381.172 73.415 395.672 87.415 395.672 87.415Z" fill="#6064EC"/>
<path opacity="0.1" d="M446.198 117.283C446.198 117.283 462.02 104.622 455.975 101.713C449.415 98.5569 447.976 106.934 448.399 104.47C448.06 106.441 450.063 98.3337 443.163 99.512C434.278 101.029 446.198 117.283 446.198 117.283Z" fill="#6064EC"/>
<path opacity="0.1" d="M460.028 54.2509C460.028 54.2509 476.098 41.9063 470.112 38.8785C463.616 35.5927 462.011 43.9398 462.483 41.4847C462.105 43.4488 464.268 35.3823 457.346 36.4237C448.433 37.7647 460.028 54.2509 460.028 54.2509Z" fill="#6064EC"/>
<path opacity="0.1" d="M359.672 126.415C359.672 126.415 373.122 111.258 366.672 109.415C359.672 107.415 359.672 115.915 359.672 113.415C359.672 115.415 360.273 107.085 353.672 109.415C345.172 112.415 359.672 126.415 359.672 126.415Z" fill="#6064EC"/>
<path opacity="0.1" d="M261.194 58.4803C261.194 58.4803 267.018 39.0709 260.391 40.1131C253.2 41.2441 256.776 48.955 255.724 46.6871C256.566 48.5014 253.606 40.6921 248.598 45.583C242.15 51.881 261.194 58.4803 261.194 58.4803Z" fill="#6064EC"/>
<path opacity="0.1" d="M768 386C771.866 386 775 382.866 775 379C775 375.134 771.866 372 768 372C764.134 372 761 375.134 761 379C761 382.866 764.134 386 768 386Z" fill="#6064EC"/>
<path opacity="0.1" d="M770.767 471.837C772.796 475.127 777.108 476.15 780.399 474.121C783.69 472.092 784.713 467.78 782.684 464.489C780.655 461.198 776.342 460.175 773.052 462.204C769.761 464.233 768.738 468.546 770.767 471.837Z" fill="#6064EC"/>
<path opacity="0.1" d="M719.674 402.306C721.703 405.597 726.015 406.62 729.306 404.591C732.597 402.562 733.62 398.249 731.591 394.958C729.562 391.668 725.249 390.645 721.959 392.674C718.668 394.703 717.645 399.015 719.674 402.306Z" fill="#6064EC"/>
<path opacity="0.1" d="M53 381C62.9411 381 71 372.941 71 363C71 353.059 62.9411 345 53 345C43.0589 345 35 353.059 35 363C35 372.941 43.0589 381 53 381Z" fill="#6064EC"/>
<path opacity="0.1" d="M778 84C781.866 84 785 80.866 785 77C785 73.134 781.866 70 778 70C774.134 70 771 73.134 771 77C771 80.866 774.134 84 778 84Z" fill="#6064EC"/>
<path opacity="0.1" d="M786 195C798.703 195 809 184.703 809 172C809 159.297 798.703 149 786 149C773.297 149 763 159.297 763 172C763 184.703 773.297 195 786 195Z" fill="#6064EC"/>
<path opacity="0.1" d="M741.455 283.344C738.442 295.684 746.004 308.13 758.344 311.143C770.684 314.156 783.13 306.594 786.143 294.254C789.156 281.914 781.594 269.468 769.254 266.455C756.914 263.442 744.468 271.004 741.455 283.344Z" fill="#6064EC"/>
<path opacity="0.1" d="M103.185 52.9001C102.268 56.6558 104.57 60.4437 108.325 61.3607C112.081 62.2777 115.869 59.9764 116.786 56.2208C117.703 52.4651 115.402 48.6772 111.646 47.7602C107.89 46.8432 104.102 49.1444 103.185 52.9001Z" fill="#6064EC"/>
<path opacity="0.1" d="M63.3678 89.5002C62.4509 93.2559 64.7521 97.0438 68.5078 97.9608C72.2634 98.8778 76.0514 96.5765 76.9683 92.8209C77.8853 89.0652 75.5841 85.2773 71.8284 84.3603C68.0727 83.4433 64.2848 85.7445 63.3678 89.5002Z" fill="#6064EC"/>
<path opacity="0.1" d="M35.4969 227.373C47.6571 223.701 54.5378 210.866 50.8655 198.706C47.1932 186.546 34.3585 179.665 22.1984 183.338C10.0382 187.01 3.15746 199.845 6.82976 212.005C10.5021 224.165 23.3368 231.046 35.4969 227.373Z" fill="#6064EC"/>
<path opacity="0.1" d="M47.4999 139.135C51.2008 138.018 53.295 134.112 52.1773 130.411C51.0597 126.71 47.1534 124.616 43.4525 125.733C39.7516 126.851 37.6575 130.757 38.7751 134.458C39.8928 138.159 43.799 140.253 47.4999 139.135Z" fill="#6064EC"/>
<path opacity="0.1" d="M41.7565 419.666C44.9256 417.452 45.6997 413.088 43.4855 409.919C41.2713 406.75 36.9073 405.976 33.7382 408.19C30.5691 410.404 29.795 414.768 32.0091 417.937C34.2233 421.106 38.5874 421.881 41.7565 419.666Z" fill="#6064EC"/>
<path opacity="0.1" d="M111.888 506.076C122.301 498.8 124.844 484.462 117.569 474.049C110.294 463.636 95.955 461.092 85.5422 468.368C75.1294 475.643 72.5859 489.982 79.8611 500.395C87.1363 510.807 101.475 513.351 111.888 506.076Z" fill="#6064EC"/>
<path opacity="0.1" d="M95.8269 418.486C98.996 416.271 99.7701 411.907 97.5559 408.738C95.3417 405.569 90.9777 404.795 87.8086 407.009C84.6395 409.223 83.8653 413.587 86.0795 416.756C88.2937 419.926 92.6578 420.7 95.8269 418.486Z" fill="#6064EC"/>
<path opacity="0.1" d="M162.965 610.367C164.508 606.823 162.887 602.698 159.342 601.155C155.798 599.611 151.673 601.233 150.129 604.777C148.586 608.321 150.207 612.446 153.752 613.99C157.296 615.534 161.421 613.912 162.965 610.367Z" fill="#6064EC"/>
<path opacity="0.1" d="M91.1546 582.16C94.2317 584.501 98.6234 583.904 100.964 580.827C103.304 577.749 102.707 573.358 99.63 571.017C96.5529 568.677 92.1612 569.274 89.8208 572.351C87.4804 575.428 88.0775 579.82 91.1546 582.16Z" fill="#6064EC"/>
<path opacity="0.1" d="M108.81 633.281C111.887 635.621 116.279 635.024 118.619 631.947C120.96 628.87 120.363 624.478 117.285 622.138C114.208 619.797 109.817 620.394 107.476 623.472C105.136 626.549 105.733 630.94 108.81 633.281Z" fill="#6064EC"/>
<path opacity="0.1" d="M16.1336 493.487C19.3044 491.275 20.0819 486.912 17.8701 483.741C15.6583 480.57 11.2949 479.793 8.1241 482.005C4.9533 484.217 4.17585 488.58 6.38762 491.751C8.59939 494.922 12.9628 495.699 16.1336 493.487Z" fill="#6064EC"/>
<path opacity="0.1" d="M761 242C764.866 242 768 238.866 768 235C768 231.134 764.866 228 761 228C757.134 228 754 231.134 754 235C754 238.866 757.134 242 761 242Z" fill="#6064EC"/>
<path opacity="0.1" d="M78 454C81.866 454 85 450.866 85 447C85 443.134 81.866 440 78 440C74.134 440 71 443.134 71 447C71 450.866 74.134 454 78 454Z" fill="#6064EC"/>
<path opacity="0.1" d="M67 294C70.866 294 74 290.866 74 287C74 283.134 70.866 280 67 280C63.134 280 60 283.134 60 287C60 290.866 63.134 294 67 294Z" fill="#6064EC"/>
<g opacity="0.2">
<path opacity="0.2" d="M258.378 559.481C270.581 556.755 277.517 541.31 273.871 524.984C270.225 508.658 257.376 497.632 245.173 500.357C232.97 503.083 226.033 518.527 229.68 534.854C233.326 551.18 246.175 562.206 258.378 559.481Z" fill="#3F3D56"/>
<path opacity="0.2" d="M249.797 523.476C262 520.751 268.937 505.306 265.29 488.98C261.644 472.653 248.795 461.628 236.592 464.353C224.389 467.079 217.453 482.523 221.099 498.85C224.746 515.176 237.594 526.202 249.797 523.476Z" fill="#3F3D56"/>
<path opacity="0.2" d="M266.74 226.94C268.821 222.273 270.578 217.468 272 212.56L212 217.28L274.54 202.15C277.528 186.423 277.15 170.241 273.43 154.67C270.168 140.886 264.322 127.845 256.2 116.24L183 181.69L246.37 104.22C220.5 76.6 181.37 63.46 142.48 73.22C84.37 87.75 48.76 147.79 62.94 207.32C68.5766 231.365 82.0893 252.836 101.33 268.32C98.0975 275.588 95.6406 283.177 94 290.96L178.42 312.1L92 304.61C90.9664 316.676 91.8711 328.83 94.68 340.61C100.326 364.654 113.841 386.123 133.08 401.61C122.97 424.312 120.635 449.716 126.44 473.88C140.62 533.41 199.22 569.88 257.33 555.36C315.44 540.84 351.05 480.8 336.87 421.27C331.224 397.226 317.709 375.757 298.47 360.27C308.58 337.568 310.915 312.164 305.11 288C299.489 263.937 285.983 242.444 266.74 226.94Z" fill="#6064EC"/>
</g>
<path opacity="0.1" d="M53 381C62.9411 381 71 372.941 71 363C71 353.059 62.9411 345 53 345C43.0589 345 35 353.059 35 363C35 372.941 43.0589 381 53 381Z" fill="#6064EC"/>
<path opacity="0.1" d="M78 454C81.866 454 85 450.866 85 447C85 443.134 81.866 440 78 440C74.134 440 71 443.134 71 447C71 450.866 74.134 454 78 454Z" fill="#6064EC"/>
<path opacity="0.1" d="M67 294C70.866 294 74 290.866 74 287C74 283.134 70.866 280 67 280C63.134 280 60 283.134 60 287C60 290.866 63.134 294 67 294Z" fill="#6064EC"/>
<defs>
<linearGradient id="paint0_linear" x1="265.56" y1="681.63" x2="265.56" y2="141" gradientUnits="userSpaceOnUse">
<stop stop-color="#808080" stop-opacity="0.25"/>
<stop offset="0.54" stop-color="#808080" stop-opacity="0.12"/>
<stop offset="1" stop-color="#808080" stop-opacity="0.1"/>
</linearGradient>
</defs>
</svg>
